<?xml version="1.0" encoding="utf-8"?>
<!-- Generator: Adobe Illustrator 25.4.1, SVG Export Plug-In . SVG Version: 6.00 Build 0)  -->
<svg version="1.1" id="Calque_1" xmlns="http://www.w3.org/2000/svg" xmlns:xlink="http://www.w3.org/1999/xlink" x="0px" y="0px"
	 viewBox="0 0 24 24" style="enable-background:new 0 0 24 24;" xml:space="preserve">
<style type="text/css">
	.st0{fill:none;}
	.st1{fill:none;stroke:#FFFFFF;stroke-width:0.4782;stroke-miterlimit:10;}
	.st2{fill:#FFFFFF;}
</style>
<g>
	<rect class="st0" width="24" height="24"/>
	<rect class="st0" width="24" height="24"/>
</g>
<g>
	<circle class="st1" cx="12" cy="11.6" r="4.3"/>
	<g>
		<g>
			<path class="st2" d="M14.5,8.8L14.5,8.8c-0.2-0.2-0.5-0.2-0.7,0L12,10.6l-1.9-1.9c-0.2-0.2-0.5-0.2-0.7,0l0,0
				C9.3,9,9.3,9.3,9.5,9.4l2.2,2.2c0.2,0.2,0.5,0.2,0.7,0l2.2-2.2C14.7,9.3,14.7,9,14.5,8.8z"/>
			<path class="st2" d="M14.5,11.9L14.5,11.9c-0.2-0.2-0.5-0.2-0.7,0L12,13.8l-1.9-1.9c-0.2-0.2-0.5-0.2-0.7,0l0,0
				c-0.2,0.2-0.2,0.5,0,0.7l2.2,2.2c0.2,0.2,0.5,0.2,0.7,0l2.2-2.2C14.7,12.4,14.7,12.1,14.5,11.9z"/>
		</g>
	</g>
</g>
</svg>
