<?xml version="1.0" encoding="utf-8"?>
<!-- Generator: Adobe Illustrator 25.4.1, SVG Export Plug-In . SVG Version: 6.00 Build 0)  -->
<svg version="1.1" id="Calque_1" xmlns="http://www.w3.org/2000/svg" xmlns:xlink="http://www.w3.org/1999/xlink" x="0px" y="0px"
	 viewBox="0 0 350 90.476" style="enable-background:new 0 0 350 90.476;" xml:space="preserve">
<style type="text/css">
	.st0{fill:#FFFFFF;}
</style>
<g>
	<rect x="1.5" y="1.5" width="347" height="87.476"/>
	<path class="st0" d="M347,3v84.476H3V3H347 M350,0H0v90.476h350V0L350,0z"/>
</g>
<g>
	<path class="st0" d="M109.565,60.59l6.156-30.78h6.004l6.156,30.78h-5.206l-1.216-7.106h-5.358l-1.254,7.106H109.565z
		 M116.671,49.912h4.18l-2.09-12.92L116.671,49.912z"/>
	<path class="st0" d="M138.901,61.008c-2.255,0-4.022-0.443-5.301-1.33c-1.279-0.886-2.172-2.096-2.679-3.629
		c-0.507-1.532-0.76-3.299-0.76-5.301V39.766c0-2.102,0.253-3.926,0.76-5.472c0.506-1.545,1.399-2.736,2.679-3.572
		s3.046-1.254,5.301-1.254c2.128,0,3.793,0.361,4.997,1.083c1.203,0.722,2.058,1.754,2.565,3.097c0.506,1.343,0.76,2.901,0.76,4.674
		v2.584h-5.396v-2.66c0-0.861-0.044-1.646-0.133-2.356c-0.089-0.709-0.33-1.273-0.722-1.691c-0.393-0.418-1.07-0.627-2.033-0.627
		c-0.963,0-1.666,0.222-2.109,0.665c-0.443,0.443-0.729,1.039-0.855,1.786c-0.127,0.748-0.19,1.59-0.19,2.527v13.376
		c0,1.115,0.089,2.033,0.266,2.755c0.177,0.722,0.5,1.267,0.969,1.634c0.468,0.368,1.108,0.551,1.919,0.551
		c0.937,0,1.602-0.221,1.995-0.665c0.393-0.443,0.64-1.032,0.741-1.767c0.101-0.735,0.152-1.558,0.152-2.47V49.19h5.396v2.47
		c0,1.824-0.241,3.439-0.722,4.845c-0.481,1.406-1.324,2.508-2.527,3.306C142.771,60.609,141.079,61.008,138.901,61.008z"/>
	<path class="st0" d="M151.213,60.59V29.81h5.586v12.882h6.27V29.81h5.624v30.78h-5.624V46.682h-6.27V60.59H151.213z"/>
	<path class="st0" d="M173.405,60.59V29.81h12.92v3.952h-7.296v8.854h5.738v3.914h-5.738v10.184h7.372v3.876H173.405z"/>
	<path class="st0" d="M192.746,60.59V33.952h-4.902V29.81h15.352v4.142h-4.826V60.59H192.746z"/>
	<path class="st0" d="M206.008,60.59V29.81h12.92v3.952h-7.296v8.854h5.738v3.914h-5.738v10.184h7.372v3.876H206.008z"/>
	<path class="st0" d="M222.272,60.59V29.81h7.372c2.077,0,3.832,0.247,5.263,0.741c1.431,0.494,2.521,1.336,3.268,2.527
		c0.747,1.191,1.121,2.812,1.121,4.864c0,1.242-0.114,2.356-0.342,3.344c-0.228,0.988-0.615,1.831-1.159,2.527
		c-0.545,0.697-1.298,1.235-2.261,1.615l4.294,15.162h-5.624l-3.724-14.098h-2.584V60.59H222.272z M227.896,42.958h1.748
		c1.089,0,1.957-0.158,2.603-0.475c0.646-0.316,1.108-0.823,1.387-1.52c0.278-0.696,0.418-1.589,0.418-2.679
		c0-1.545-0.285-2.704-0.855-3.477c-0.57-0.772-1.653-1.159-3.249-1.159h-2.052V42.958z"/>
</g>
</svg>
