<?xml version="1.0" encoding="utf-8"?>
<!-- Generator: Adobe Illustrator 25.4.1, SVG Export Plug-In . SVG Version: 6.00 Build 0)  -->
<svg version="1.1" id="Calque_1" xmlns="http://www.w3.org/2000/svg" xmlns:xlink="http://www.w3.org/1999/xlink" x="0px" y="0px"
	 viewBox="0 0 560 400" style="enable-background:new 0 0 560 400;" xml:space="preserve">
<style type="text/css">
	.st0{fill-rule:evenodd;clip-rule:evenodd;fill:#FFFFFF;}
	.st1{fill:#FFFFFF;}
</style>
<g transform="matrix(1.21457 0 0 1.21457 37.1457 17.753)">
	<g transform="translate(0 86.8438)">
		<path class="st0" d="M66.6,50.1h16.6v9.7H66.6V50.1z"/>
		<path class="st0" d="M66.6,63.5h16.6v9.7H66.6V63.5z"/>
		<path class="st0" d="M66.6,77h16.6v9.7H66.6V77z"/>
		<path class="st0" d="M6.3,90.5h16.6v9.7H6.3V90.5z"/>
		<path class="st0" d="M26.4,90.5H43v9.7H26.4V90.5z"/>
		<path class="st0" d="M46.5,90.5h16.6v9.7H46.5V90.5z"/>
		<path class="st0" d="M66.6,90.5h16.6v9.7H66.6V90.5z"/>
		<path class="st0" d="M46.5,77h16.6v9.7H46.5V77z"/>
		<path class="st0" d="M26.4,77H43v9.7H26.4V77z"/>
		<path class="st0" d="M26.4,63.5H43v9.7H26.4V63.5z"/>
	</g>
	<path class="st1" d="M97,162.2c0,15.5,9.6,24.8,23.8,24.8c7.1,0,13.1-2,16.4-7.2v7.2h13v-74h-13.5v31.5c-3.1-5.2-8.7-7.5-15.8-7.5
		C107,136.9,97,146.4,97,162.2z M137.1,162.2c0,8.9-6,14.4-13.3,14.4c-7.5,0-13.3-5.5-13.3-14.4c0-9,5.8-14.7,13.3-14.7
		C131.1,147.5,137.1,153.2,137.1,162.2z M192.1,167.9c-1.5,5.7-5.5,8.6-11.6,8.6c-7.2,0-13.1-4.3-13.2-12h34
		c0.4-1.9,0.6-3.9,0.6-6.1c0-13.8-9.4-21.5-23.2-21.5c-14.8,0-24.9,10.5-24.9,24.8c0,15.9,11.2,25.4,26.7,25.4
		c11.7,0,19.6-4.9,23.1-14.6L192.1,167.9z M167.3,155.5c1.3-5.5,5.9-8.8,11.4-8.8c6,0,10.1,3.3,10.1,8.4l-0.1,0.4L167.3,155.5z
		 M242.1,167.9c-1.5,5.7-5.5,8.6-11.6,8.6c-7.2,0-13.1-4.3-13.2-12h34c0.4-1.9,0.6-3.9,0.6-6.1c0-13.8-9.4-21.5-23.2-21.5
		c-14.8,0-24.9,10.5-24.9,24.8c0,15.9,11.2,25.4,26.7,25.4c11.7,0,19.6-4.9,23.1-14.6L242.1,167.9z M217.3,155.5
		c1.3-5.5,5.9-8.8,11.4-8.8c6,0,10.1,3.3,10.1,8.4l-0.1,0.4L217.3,155.5z M299.4,187.1v-12.2h-28.3l27.5-26.8v-11.2H255v11.6h26.6
		l-27.5,26.9V187L299.4,187.1L299.4,187.1z M338.8,167.9c-1.5,5.7-5.5,8.6-11.6,8.6c-7.2,0-13.1-4.3-13.2-12h34
		c0.4-1.9,0.6-3.9,0.6-6.1c0-13.8-9.4-21.5-23.2-21.5c-14.8,0-24.9,10.5-24.9,24.8c0,15.9,11.2,25.4,26.7,25.4
		c11.7,0,19.6-4.9,23.1-14.6L338.8,167.9z M314,155.5c1.3-5.5,5.9-8.8,11.4-8.8c6,0,10.1,3.3,10.1,8.4l-0.1,0.4L314,155.5z
		 M380.5,154.2v1.4h13.1v-3.8c0-8.6-5.4-14.8-14.4-14.8c-5.8,0-9.9,2.8-12,7.5V137h-13.6v50.1h13.6v-32.3c0-5.1,2.8-7.9,7-7.9
		C378.1,146.9,380.5,150.5,380.5,154.2z"/>
</g>
</svg>
