<?xml version="1.0" encoding="utf-8"?>
<!-- Generator: Adobe Illustrator 25.4.1, SVG Export Plug-In . SVG Version: 6.00 Build 0)  -->
<svg  width="255px" height="162px" version="1.1" id="Calque_1" xmlns="http://www.w3.org/2000/svg" xmlns:xlink="http://www.w3.org/1999/xlink" x="0px" y="0px"
	 viewBox="200 150 255 162" style="enable-background:new 0 0 255 162;" xml:space="preserve">
<style type="text/css">
	.st0{fill:#FFFFFF;}
</style>
<g>
	<g>
		<path class="st0" d="M282.958,267.539c-18.604,0-30.285,15.143-31.151,38.938h-27.257c1.298-48.024,24.228-70.954,57.109-70.954
			c41.966,0,59.272,41.967,86.097,41.967c19.036,0,30.285-15.575,31.15-39.371h27.257c-1.298,48.457-24.228,71.387-57.109,71.387
			C327.521,309.506,309.782,267.539,282.958,267.539z"/>
	</g>
	<g>
		<path class="st0" d="M227.326,216.179l-5.034-27.93h5.276l3,18.965l2.793-18.965h5.586l-5.103,27.93H227.326z"/>
		<path class="st0" d="M239.326,216.179l5.276-27.93h7.034l5.207,27.93h-5.69l-0.931-5.896h-4.103l-0.966,5.896H239.326z
			 M246.67,206.593h2.966l-1.483-10.896L246.67,206.593z"/>
		<path class="st0" d="M266.498,216.593c-1.931,0-3.454-0.402-4.569-1.207c-1.115-0.804-1.908-1.936-2.379-3.396
			c-0.471-1.46-0.707-3.143-0.707-5.052v-9.379c0-1.977,0.253-3.689,0.759-5.138c0.505-1.448,1.373-2.569,2.603-3.362
			c1.229-0.793,2.902-1.19,5.017-1.19c2.069,0,3.695,0.345,4.879,1.035c1.184,0.69,2.028,1.644,2.534,2.862
			c0.505,1.219,0.759,2.644,0.759,4.276v1.793h-6.034v-2.276c0-0.598-0.041-1.149-0.121-1.655c-0.081-0.505-0.265-0.914-0.552-1.224
			c-0.288-0.31-0.753-0.465-1.397-0.465c-0.667,0-1.15,0.178-1.448,0.534c-0.299,0.357-0.489,0.799-0.569,1.328
			c-0.081,0.529-0.121,1.081-0.121,1.655v12.931c0,0.621,0.063,1.201,0.19,1.742c0.126,0.54,0.356,0.977,0.69,1.31
			c0.333,0.333,0.81,0.5,1.431,0.5c0.643,0,1.138-0.172,1.483-0.517c0.345-0.345,0.586-0.793,0.724-1.345
			c0.138-0.552,0.207-1.138,0.207-1.759v-3.276h-2.517v-3.621h8.069v14.482h-4.069l-0.345-2.31
			c-0.368,0.781-0.909,1.431-1.621,1.948C268.681,216.334,267.716,216.593,266.498,216.593z"/>
		<path class="st0" d="M287.359,216.593c-2.138,0-3.81-0.351-5.017-1.052c-1.207-0.701-2.052-1.724-2.534-3.069
			c-0.483-1.345-0.724-2.994-0.724-4.948v-19.275h6.104v20.206c0,0.575,0.046,1.15,0.138,1.724c0.091,0.575,0.293,1.046,0.603,1.414
			c0.31,0.368,0.787,0.551,1.431,0.551c0.666,0,1.149-0.184,1.448-0.551c0.298-0.368,0.488-0.839,0.569-1.414
			c0.08-0.574,0.121-1.149,0.121-1.724v-20.206h6.138v19.275c0,1.954-0.247,3.603-0.741,4.948c-0.495,1.345-1.339,2.368-2.534,3.069
			C291.163,216.242,289.497,216.593,287.359,216.593z"/>
		<path class="st0" d="M299.566,216.179v-27.93h12.551v4.207h-6.379v6.931h4.862v4.276h-4.862v8.344h6.448v4.172H299.566z"/>
		<path class="st0" d="M322.461,216.179l5.275-27.93h7.035l5.207,27.93h-5.69l-0.931-5.896h-4.104l-0.965,5.896H322.461z
			 M329.598,186.042l-4.38-6.931h5.793l2.104,6.931H329.598z M329.805,206.593h2.965l-1.483-10.896L329.805,206.593z"/>
		<path class="st0" d="M351.356,216.179v-27.93h6.172v23.758h6.414v4.172H351.356z"/>
		<path class="st0" d="M365.873,198.628v-10.379h4.586l-1.862,10.379H365.873z"/>
		<path class="st0" d="M371.596,216.179l5.275-27.93h7.035l5.207,27.93h-5.69l-0.931-5.896h-4.104l-0.965,5.896H371.596z
			 M374.769,185.801l3.276-6.621h4.586l3.379,6.621h-4.137l-1.517-4.103l-1.483,4.103H374.769z M378.941,206.593h2.965
			l-1.483-10.896L378.941,206.593z"/>
		<path class="st0" d="M391.838,216.179l0.482-27.93h6.621l3.069,16.241l3.31-16.241h6.379l0.483,27.93h-4.379l-0.517-18.586
			l-3.241,18.586h-3.897l-3.448-18.724l-0.414,18.724H391.838z"/>
		<path class="st0" d="M415.802,216.179v-27.93h12.551v4.207h-6.379v6.931h4.862v4.276h-4.862v8.344h6.448v4.172H415.802z"/>
	</g>
</g>
</svg>
