<?xml version="1.0" encoding="utf-8"?>
<!-- Generator: Adobe Illustrator 25.4.1, SVG Export Plug-In . SVG Version: 6.00 Build 0)  -->
<svg version="1.1" id="Calque_1" xmlns="http://www.w3.org/2000/svg" xmlns:xlink="http://www.w3.org/1999/xlink" x="0px" y="0px"
	 viewBox="0 0 2500 2500" style="enable-background:new 0 0 2500 2500;" xml:space="preserve">
<style type="text/css">
	.st0{fill-rule:evenodd;clip-rule:evenodd;fill:#1B3771;}
	.st1{fill-rule:evenodd;clip-rule:evenodd;fill:#E9B040;}
	.st2{fill-rule:evenodd;clip-rule:evenodd;fill:#CC2131;}
	.st3{fill-rule:evenodd;clip-rule:evenodd;fill:#FFFFFF;}
</style>
<g>
	<path class="st0" d="M110.3,1971.1h2279.4V528.9H110.3V1971.1L110.3,1971.1z"/>
	<path class="st1" d="M1251.8,1710.8c110,100.2,257.9,161.3,418,161.3c344.7,0,623.3-278.7,623.3-623.3
		c0-343.4-278.6-623.3-623.3-623.3c-160.1,0-308,61.1-418,161.3c-125.9,114.9-205.3,278.7-205.3,462S1125.9,1597.1,1251.8,1710.8
		L1251.8,1710.8z"/>
	<path class="st1" d="M2210,1595.9c0-11,8.5-19.6,20.8-19.6c11,0,19.6,8.6,19.6,19.6s-8.6,20.8-19.6,20.8
		c-11.4,0.1-20.7-9.1-20.8-20.4C2210,1596.1,2210,1596,2210,1595.9z M2230.8,1611.8c7.3,0,14.7-7.3,14.7-15.9s-7.3-14.7-14.7-14.7
		c-8.6,0-15.9,6.1-15.9,14.7C2214.9,1604.4,2222.3,1611.8,2230.8,1611.8z M2227.2,1605.7h-3.7v-18.3h7.3c1.2,0,3.7,0,4.9,1.2
		s2.4,2.5,2.4,3.7c0,2.5-1.2,4.9-3.6,4.9l3.6,8.6h-4.9l-2.4-7.3h-3.7L2227.2,1605.7L2227.2,1605.7z M2227.2,1594.7h4.9
		c1.2,0,1.2-1.2,1.2-2.5c0,0,0-1.2-1.2-1.2h-4.9V1594.7L2227.2,1594.7z"/>
	<path class="st2" d="M1453.5,1182.8c-2.5-22.2-6.1-44.2-11-66h-381.3c5-22.3,11.1-44.3,18.3-66h344.7c-7.5-22.4-16.1-44.4-25.7-66
		h-293.3c11.3-22.5,23.5-44.5,36.7-66h220c-13.7-23.5-29.6-45.6-47.7-66h-124.7c18.3-23.2,40.3-45.2,62.3-66
		c-110-100.2-256.7-161.3-418-161.3c-344.7,0-623.3,279.9-623.3,623.3c0,344.7,278.7,623.3,623.3,623.3c161.3,0,308-61.1,418-161.3
		c22-20.8,44-42.8,63.6-66h-125.9c-17.2-21-33.2-43-47.7-66h220c13.7-21.2,25.9-43.2,36.7-66h-293.3c-10-21.4-18.6-43.4-25.7-66
		h344.7c7.2-21.7,13.4-43.7,18.3-66c4.9-22,8.5-44,11-66C1458.4,1270.9,1458.4,1226.6,1453.5,1182.8L1453.5,1182.8z"/>
	<path class="st3" d="M2210,1393c0-11,8.5-19.6,20.8-19.6c11,0,19.6,8.6,19.6,19.6s-8.6,20.8-19.6,20.8c-11.4,0.1-20.7-9-20.8-20.4
		C2210,1393.2,2210,1393.1,2210,1393z M2230.8,1408.9c7.3,0,14.7-7.3,14.7-15.9s-7.3-14.7-14.7-14.7c-8.6,0-15.9,6.1-15.9,14.7
		C2214.9,1401.5,2222.3,1408.9,2230.8,1408.9z M2227.2,1402.8h-3.7v-18.3h7.3c1.2,0,3.7,0,4.9,1.2s2.4,2.5,2.4,3.7
		c0,2.5-1.2,4.9-3.6,4.9l3.6,8.6h-4.9l-2.4-7.3h-3.7L2227.2,1402.8L2227.2,1402.8z M2227.2,1391.8h4.9c1.2,0,1.2-1.2,1.2-2.5
		c0,0,0-1.2-1.2-1.2h-4.9V1391.8L2227.2,1391.8z"/>
	<path class="st0" d="M1040.4,1428.5c-20.8,6.1-35.4,8.6-51.3,8.6c-31.8,0-51.3-19.6-51.3-56.2c0-7.3,1.2-14.7,2.4-23.2l3.7-24.4
		l3.7-20.8l29.3-176h64.8l-7.3,39.1h40.3l-9.8,64.8h-40.3l-18.3,105.1c0,3.7-1.2,7.3-1.2,9.8c0,13.4,7.3,19.6,23.2,19.6
		c8.6,0,13.4-1.2,20.8-2.5L1040.4,1428.5L1040.4,1428.5z M1249.4,1426c-22.5,7.2-46,11-69.7,11c-72.1,0-114.9-39.1-114.9-114.9
		c0-88,50.1-154,118.6-154c55,0,90.4,36.7,90.4,94.1c0,18.3-2.4,36.7-8.5,63.6h-134.5v7.3c0,30.5,19.6,45.2,58.7,45.2
		c24.4,0,46.4-4.9,70.9-15.9L1249.4,1426L1249.4,1426z M1209.1,1273.2V1261c0-20.8-12.2-33-31.8-33c-22,0-36.7,15.9-42.8,45.2
		H1209.1L1209.1,1273.2L1209.1,1273.2z M523.4,1432.1h-67.2l39.1-243.2l-86.8,243.2h-46.4l-4.9-242l-41.6,242h-64.8l52.6-316.6h96.5
		l3.7,195.6l64.8-195.6H576L523.4,1432.1z M686,1317.2c-7.3,0-8.6-1.2-13.4-1.2c-37.9,0-57.4,14.7-57.4,39.1
		c0,17.1,9.8,26.9,24.4,26.9C672.5,1382,684.7,1355.1,686,1317.2L686,1317.2z M739.7,1432.1H681l1.2-26.9
		c-14.7,20.8-34.2,31.8-70.9,31.8c-33,0-59.9-29.3-59.9-70.9c0-12.2,2.4-23.2,4.9-33c11-40.3,51.3-64.8,112.4-66
		c7.3,0,19.6,0,29.3,1.2c2.4-8.5,2.4-12.2,2.4-17.1c0-17.1-13.4-22-45.2-22c-19.6,0-40.3,3.7-56.2,7.3l-8.5,3.7h-4.9l9.8-57.4
		c31.8-9.8,53.8-13.4,78.2-13.4c58.7,0,89.2,25.7,89.2,75.8c0,12.2,1.2,22-3.7,50.1l-13.4,91.7l-2.4,15.9l-2.4,13.4v8.6
		L739.7,1432.1L739.7,1432.1z M1574.5,1177.9c18.3,0,35.4,4.9,59.9,17.1l11-69.7c-6.1-2.4-7.3-2.4-15.9-6.1l-28.1-6.1
		c-8.6-2.4-18.3-3.7-30.5-3.7c-33,0-52.6,0-73.3,13.4c-11,6.1-24.4,15.9-40.3,33l-7.3-2.5l-69.7,48.9l3.7-26.9h-72.1l-40.3,256.7
		h67.2l24.4-138.1c0,0,9.8-19.6,14.7-25.7c12.2-15.9,23.2-15.9,36.7-15.9h4.9c-1.2,14.7-2.5,31.8-2.5,48.9
		c0,84.3,47.7,136.9,121,136.9c18.3,0,34.2-2.5,58.7-9.8l12.2-72.1c-22,11-40.3,15.9-57.4,15.9c-39.1,0-62.3-28.1-62.3-77
		C1488.9,1226.8,1523.2,1177.9,1574.5,1177.9L1574.5,1177.9z M2145.3,1115.6l-14.7,90.5c-15.9-24.4-35.4-35.4-61.1-35.4
		c-35.4,0-68.4,19.6-89.2,57.4l-42.8-25.7l3.7-26.9H1869l-41.5,256.7h68.4l22-138.1c0,0,17.1-19.6,22-25.7
		c9.8-12.2,20.8-15.9,29.3-15.9c-8.1,24.4-12.2,50-12.2,75.8c0,64.8,34.2,107.5,83.1,107.5c24.4,0,44-8.5,62.3-29.3l-3.7,25.7h64.8
		l51.3-316.6H2145.3L2145.3,1115.6L2145.3,1115.6z M2063.4,1371c-23.2,0-34.2-15.9-34.2-50.1c0-50.1,20.8-86.8,52.5-86.8
		c23.2,0,35.5,18.3,35.5,51.3C2117.2,1335.6,2095.1,1371,2063.4,1371L2063.4,1371z M1751.7,1317.2c-7.3,0-8.5-1.2-13.4-1.2
		c-37.9,0-57.5,14.7-57.5,39.1c0,17.1,9.8,26.9,24.4,26.9C1738.3,1382,1750.5,1355.1,1751.7,1317.2L1751.7,1317.2z M1805.5,1432.1
		h-58.6l1.2-26.9c-14.7,20.8-34.2,31.8-70.9,31.8c-33,0-62.3-28.1-62.3-70.9c1.2-61.1,46.4-99,119.8-99c7.3,0,19.6,0,29.3,1.2
		c2.5-8.5,2.5-12.2,2.5-17.1c0-17.1-13.4-22-45.2-22c-19.6,0-41.5,3.7-56.2,7.3l-9.8,3.7h-3.7l9.8-57.4
		c31.8-9.8,53.8-13.4,78.2-13.4c58.7,0,89.2,25.7,89.2,75.8c0,12.2,1.2,22-3.7,50.1l-13.4,91.7l-2.5,15.9l-2.4,13.4l-1.2,8.6v7.2
		H1805.5z M880.3,1230.5c13.4,0,31.8,1.2,51.3,3.7l9.8-59.9c-19.6-2.4-45.2-4.9-61.1-4.9c-74.6,0-100.2,40.3-100.2,88
		c0,30.5,14.7,53.8,50.1,69.7c28.1,13.4,33,15.9,33,26.9c0,15.9-14.7,25.7-41.6,25.7c-19.5,0-37.9-3.7-59.9-9.8l-7.3,58.7h1.2
		l12.2,2.5c3.7,1.2,9.8,2.4,17.1,2.4c17.1,2.4,30.5,2.4,39.1,2.4c74.6,0,106.3-28.1,106.3-85.5c0-35.4-17.1-56.2-51.3-70.9
		c-28.1-13.4-31.8-14.7-31.8-26.9C847.3,1240.2,859.5,1230.5,880.3,1230.5L880.3,1230.5z"/>
	<path class="st3" d="M1663.7,1105.8l-11,68.4c-24.4-12.2-41.5-17.1-59.9-17.1c-51.3,0-86.8,48.9-86.8,118.6c0,47.7,24.4,77,63.5,77
		c17.1,0,35.5-4.9,57.5-15.9l-12.2,72.1c-24.4,6.1-40.3,8.6-59.9,8.6c-72.1,0-117.3-51.3-117.3-135.7
		c0-113.7,62.3-191.9,151.5-191.9c12.2,0,22,1.2,30.6,2.4l28.1,7.3C1656.4,1103.3,1657.6,1103.3,1663.7,1105.8L1663.7,1105.8z
		 M1447.4,1153.5c-2.5-1.2-4.9-1.2-7.3-1.2c-22,0-34.2,11-55,41.6l6.1-39.1h-62.3l-40.3,257.9h67.2
		c24.4-157.7,30.5-184.6,63.6-184.6h4.9c6.1-30.6,13.4-53.8,25.7-74.6L1447.4,1153.5L1447.4,1153.5L1447.4,1153.5z M1057.5,1408.9
		c-18.3,6.1-33,8.6-48.9,8.6c-34.2,0-53.8-19.6-53.8-56.2c0-7.3,1.2-14.7,2.4-23.2l3.7-25.7l3.7-19.6l29.3-176h67.2l-7.3,37.9h34.2
		l-9.8,63.6H1044l-18.3,106.3c0,4.9-1.2,8.6-1.2,11c0,13.4,7.3,19.6,23.2,19.6c8.6,0,13.4-1.2,18.3-2.5L1057.5,1408.9L1057.5,1408.9
		z M797.2,1236.6c0,31.8,15.9,55,51.3,70.9c28.1,13.4,31.8,17.1,31.8,29.3c0,15.9-12.2,23.2-39.1,23.2c-19.6,0-37.9-3.7-59.9-11
		l-9.8,59.9h3.7l12.2,2.5c5.5,1.7,11.3,2.5,17.1,2.4c15.9,1.2,29.3,2.4,37.9,2.4c70.9,0,103.9-26.9,103.9-85.5
		c0-35.4-13.4-56.2-47.7-72.1c-28.1-12.2-31.8-15.9-31.8-26.9c0-14.7,11-22,33-22c13.4,0,31.8,2.4,48.9,4.9l9.8-59.9
		c-17.1-2.4-44-4.9-59.9-4.9C822.8,1149.8,797.2,1188.9,797.2,1236.6L797.2,1236.6z M2180.7,1412.6H2116l3.6-25.7
		c-18.3,19.6-37.9,28.1-62.3,28.1c-48.9,0-81.9-41.5-81.9-106.3c0-85.6,50.1-157.7,110-157.7c26.9,0,46.5,11,64.8,35.4l14.7-90.5
		h67.2L2180.7,1412.6L2180.7,1412.6z M2080.5,1351.4c31.8,0,53.8-35.4,53.8-86.8c0-31.8-12.2-50.1-35.4-50.1
		c-30.5,0-52.6,35.4-52.6,86.8C2046.3,1334.3,2057.3,1351.4,2080.5,1351.4z M1264,1406.5c-23.2,7.3-45.2,11-69.7,11
		c-75.8,0-114.9-40.3-114.9-114.9c0-89.2,50.1-154,118.6-154c55,0,90.4,36.7,90.4,94.1c0,18.3-2.4,36.7-7.3,63.6h-134.4
		c-1.2,3.7-1.2,4.9-1.2,7.3c0,29.3,19.6,45.2,59.9,45.2c23.2,0,45.2-4.9,69.7-15.9L1264,1406.5z M1226.2,1253.7v-13.4
		c0-20.8-11-33-31.8-33s-36.7,17.1-42.8,46.4H1226.2L1226.2,1253.7z M540.5,1412.6h-67.2l39.1-243.2l-86.8,243.2h-46.4l-4.9-242
		l-41.6,242h-62.3L323,1096h96.5l3.7,195.6L488,1096h105.1L540.5,1412.6L540.5,1412.6z M708,1297.7c-7.3-1.2-11-1.2-15.9-1.2
		c-37.9,0-57.4,13.4-57.4,39.1c0,15.9,9.8,26.9,24.4,26.9C687.2,1362.5,706.7,1335.6,708,1297.7L708,1297.7z M756.8,1412.6h-56.2
		l1.2-26.9c-17.1,20.8-39.1,30.5-70.9,30.5c-36.7,0-61.1-28.1-61.1-69.7c0-62.3,42.8-99,118.6-99c7.3,0,17.1,0,26.9,1.2
		c2.4-7.3,2.4-11,2.4-15.9c0-17.1-11-23.2-42.8-23.2c-19.6,0-41.6,2.4-56.2,7.3l-9.8,2.4l-6.1,1.2l9.8-57.4
		c34.2-9.8,56.2-13.4,80.7-13.4c58.7,0,89.2,25.7,89.2,74.6c0,13.4-1.2,23.2-6.1,51.3l-13.4,91.7l-2.4,15.9l-1.2,13.4l-1.2,8.6
		L756.8,1412.6L756.8,1412.6z M1773.7,1297.7c-7.3-1.2-11-1.2-15.9-1.2c-37.9,0-57.5,13.4-57.5,39.1c0,15.9,9.8,26.9,24.4,26.9
		C1751.7,1362.5,1772.5,1335.6,1773.7,1297.7L1773.7,1297.7z M1822.6,1412.6h-56.2l1.2-26.9c-17.1,20.8-40.3,30.5-70.9,30.5
		c-36.7,0-62.3-28.1-62.3-69.7c0-62.3,44-99,119.8-99c7.3,0,17.1,0,26.9,1.2c2.5-7.3,2.5-11,2.5-15.9c0-17.1-11-23.2-42.8-23.2
		c-19.6,0-41.5,2.4-56.2,7.3l-9.8,2.4l-6.1,1.2l9.8-57.4c34.2-9.8,56.2-13.4,80.7-13.4c58.7,0,89.2,25.7,89.2,74.6
		c0,13.4-1.2,23.2-6.1,51.3l-13.4,91.7l-2.4,15.9l-2.5,13.4l-1.2,8.6L1822.6,1412.6L1822.6,1412.6L1822.6,1412.6z M2003.5,1153.5
		c-1.2-1.2-3.7-1.2-6.1-1.2c-22,0-35.4,11-56.2,41.6l6.1-39.1h-61.1l-41.6,257.9h68.4c23.2-157.7,30.6-184.6,62.3-184.6h4.9
		c6.1-30.6,14.7-53.8,25.7-74.6L2003.5,1153.5L2003.5,1153.5L2003.5,1153.5z"/>
</g>
</svg>
