<?xml version="1.0" encoding="utf-8"?>
<!-- Generator: Adobe Illustrator 25.4.1, SVG Export Plug-In . SVG Version: 6.00 Build 0)  -->
<svg version="1.1" id="Calque_1" xmlns="http://www.w3.org/2000/svg" xmlns:xlink="http://www.w3.org/1999/xlink" x="0px" y="0px"
	 viewBox="0 0 2500 2500" style="enable-background:new 0 0 2500 2500;" xml:space="preserve">
<style type="text/css">
	.st0{fill-rule:evenodd;clip-rule:evenodd;fill:#315881;}
	.st1{fill-rule:evenodd;clip-rule:evenodd;fill:#DFA43B;}
</style>
<g>
	<path class="st0" d="M2463.2,659c0-116.5-60.6-174.4-178.1-174.4H214.8c-58.7,0-101.9,15.6-130.3,47.7
		C52.4,564.5,36.8,605.8,36.8,659v1182c0,53.2,15.6,93.6,47.7,126.6c33,32.1,75.3,47.7,130.3,47.7h2070.4
		c117.5,0,178.1-58.7,178.1-174.4V659H2463.2z M2285.2,512.2c97.3,0,146.8,49.6,146.8,146.8v1182c0,98.2-49.6,146.8-146.8,146.8
		H214.8c-46.8,0-82.6-13.8-109.2-41.3c-27.5-26.6-41.3-63.3-41.3-105.5V659c0-97.3,48.6-146.8,150.5-146.8H2285.2z"/>
	<path class="st0" d="M231.3,580.1c-39.5,0-64.2,6.4-78,20.2c-11.9,15.6-17.4,41.3-17.4,78.9v256h2228.2v-256
		c0-67-33.1-99.1-99.1-99.1L231.3,580.1L231.3,580.1z"/>
	<path class="st1" d="M135.9,1817.2c0,67.9,32.1,102.8,95.4,102.8H2265c66.1,0,99.1-34.9,99.1-102.8v-256H135.9V1817.2z"/>
	<path class="st0" d="M873.7,1044.4c0,11.9-1.8,21.1-6.4,27.5l-160.6,279.9l-10.1-341.4h-257l86.3,41.3
		c24.8,15.6,37.6,35.8,37.6,61.5l23.9,362.5h125.7l301-465.3H860C869.1,1018.7,873.7,1031.6,873.7,1044.4z M1912.6,1024.2l10.1-13.8
		h-156.9c5.5,5.5,7.3,8.3,7.3,10.1c-1.9,7.3-5.5,11.9-7.3,17.4l-228.5,416.6c-5.5,7.3-11,13.8-17.4,21.1h129.4l-6.4-13.8
		c0-11.9,6.4-33.9,20.2-65.1l27.5-51.4h133.1c5.5,43.1,9.2,78.9,11,105.6l-11,24.8h160.6l-23.9-34.9L1912.6,1024.2L1912.6,1024.2z
		 M1817.2,1280.3h-95.4l81.7-156.9L1817.2,1280.3z M1420.7,986.6c-49.5,0-91.8,13.8-129.4,41.3c-41.3,23.9-61.5,54.1-61.5,91.8
		c0,43.1,14.7,80.8,44,109.2l89,61.5c32.1,23,47.7,43.1,47.7,61.5c0,17.4-8.3,33-23.9,45c-15.6,11.9-33.1,17.4-55.1,17.4
		c-32.1,0-87.2-22.9-163.4-65.1v85.3c59.6,35.8,117.5,54.2,173.4,54.2c53.2,0,98.2-14.7,136.8-47.7c41.3-30.3,61.5-66.1,61.5-105.5
		c0-33.1-14.7-63.3-47.7-95.5l-85.4-61.5c-28.4-22.9-44-43.1-44-58.7c0-35.8,21.1-54.1,64.2-54.1c29.4,0,72.5,16.5,130.3,51.4
		l17.5-89C1526.2,1000.4,1475.8,986.6,1420.7,986.6L1420.7,986.6z M1079.3,1475.8c-1.8-19.3-5.5-36.7-7.4-55.1l116.6-376.3l27.5-34
		h-167.9c1.8,8.3,3.7,19.3,5.5,27.5c0,8.3,0,18.4-1.8,27.5L935.3,1438l-23.9,37.6L1079.3,1475.8L1079.3,1475.8z"/>
</g>
</svg>
