<?xml version="1.0" encoding="utf-8"?>
<!-- Generator: Adobe Illustrator 25.4.1, SVG Export Plug-In . SVG Version: 6.00 Build 0)  -->
<svg version="1.1" id="Calque_1" xmlns="http://www.w3.org/2000/svg" xmlns:xlink="http://www.w3.org/1999/xlink" x="0px" y="0px"
	 viewBox="0 0 2500 1756" style="enable-background:new 0 0 2500 1756;" xml:space="preserve">
<style type="text/css">
	.st0{fill:#E8E0E0;}
	.st1{fill:#FFFFFF;}
</style>
<g>
	<path d="M1665.3,852.4c-229.2-122.5-448.7-235.1-673.1-352.7v703.4c236.1-128.3,484.9-245.9,674-350.7L1665.3,852.4L1665.3,852.4z"
		/>
	<path class="st0" d="M1665.3,852.4c-229.2-122.5-673.1-352.7-673.1-352.7L1584,897.5C1584,897.5,1476.2,957.2,1665.3,852.4
		L1665.3,852.4z"/>
	<path class="st1" d="M1035.4,1753.7c-476.1-8.8-638.7-16.7-738.7-37.2c-67.6-13.7-126.4-44.1-169.5-88.1
		c-33.3-33.3-59.8-84.2-80.3-154.8c-17.6-58.8-24.5-107.7-34.3-227.3C-2.4,976.5-6,756,12.6,509.6c15.3-136.2,22.7-297.7,124.4-392
		c48-44.1,103.8-72.5,166.6-84.2c98-18.6,515.3-33.3,947.4-33.3c431.1,0,849.4,14.7,947.4,33.3c78.3,14.7,151.8,58.8,194.9,115.6
		c92.8,145.9,94.4,327.4,103.8,469.3c3.9,67.6,3.9,451.6,0,519.2c-14.7,224.3-26.4,303.7-59.7,385.9
		c-20.6,51.9-38.2,79.4-68.6,109.7c-47.7,46.8-108.6,77.8-174.4,89.1C1782.3,1753.3,1432.5,1760.1,1035.4,1753.7L1035.4,1753.7z
		 M1666.3,852.4c-229.2-122.5-448.7-236.1-673.1-353.7v703.4c236.1-128.3,485-245.9,674-350.7L1666.3,852.4L1666.3,852.4z"/>
</g>
</svg>
