<svg xmlns="http://www.w3.org/2000/svg" viewBox="0 0 100 100" width='30px' height='30px'>
  <path style="opacity:1;fill:#f2f2f2;fill-rule:evenodd;stroke-width:5;stroke-linecap:round;stroke-linejoin:round" d="M380.707 462.857a38.571 38.571 0 0 0-38.564 38.57A38.571 38.571 0 0 0 380.715 540a38.571 38.571 0 0 0 38.57-38.572 38.571 38.571 0 0 0-38.57-38.57 38.571 38.571 0 0 0-.008 0zM74.65 527.143a307.143 307.143 0 0 0 306.065 281.43 307.143 307.143 0 0 0 306.062-281.43h-234.85a75.714 75.714 0 0 1-71.214 50 75.714 75.714 0 0 1-71.213-50z" transform="translate(-6.61 -26.454) scale(.1598)"/>
  <path style="opacity:1;fill:red;fill-rule:evenodd;stroke-width:5;stroke-linecap:round;stroke-linejoin:round" d="M380.715 194.285A307.143 307.143 0 0 0 74.65 475.715H309.5a75.714 75.714 0 0 1 70.816-50 75.714 75.714 0 0 1 .397 0 75.714 75.714 0 0 1 71.215 50h234.851a307.143 307.143 0 0 0-306.064-281.43Z" transform="translate(-6.61 -26.454) scale(.1598)"/>
  <path style="opacity:1;fill:#000;fill-rule:evenodd;stroke-width:5;stroke-linecap:round;stroke-linejoin:round" d="M380.316 425.715c-31.755.167-60.032 20.132-70.816 50H74.65v51.428H309.5c10.834 30.004 39.312 50 71.213 50 31.901 0 60.38-19.995 71.215-50h234.85l.001-51.428H451.928c-10.835-30.005-39.314-50-71.215-50h-.397zm.391 37.142h.008c21.302.001 38.57 17.27 38.57 38.57 0 21.303-17.268 38.572-38.57 38.573-21.303 0-38.573-17.27-38.572-38.572 0-21.3 17.265-38.567 38.564-38.57z" transform="translate(-6.61 -26.454) scale(.1598)"/>
</svg>
